<svg id="svg" xmlns="http://www.w3.org/2000/svg" xmlns:xlink="http://www.w3.org/1999/xlink" width="400" height="200" viewBox="0, 0, 400,200"><g id="svgg"><path id="path0" d="M185.818 5.565 C 178.364 6.064,175.845 6.331,171.273 7.106 C 157.486 9.443,145.657 12.970,134.727 18.004 C 125.848 22.092,114.996 26.423,111.296 27.355 C 105.873 28.720,96.600 28.942,88.818 27.895 C 87.718 27.747,86.449 27.578,85.997 27.520 L 85.176 27.414 83.859 34.298 C 82.365 42.103,82.408 41.744,82.955 41.881 C 83.537 42.027,88.586 42.672,91.273 42.945 C 94.826 43.305,104.748 43.247,108.000 42.847 C 113.897 42.121,116.016 41.536,125.364 38.055 C 132.228 35.498,135.122 34.317,140.091 32.044 C 160.403 22.751,183.991 19.009,207.270 21.386 C 213.793 22.052,214.759 23.536,213.018 30.212 C 211.334 36.670,211.144 36.768,200.999 36.366 C 177.971 35.455,160.211 39.153,140.712 48.917 C 135.299 51.627,135.080 52.166,137.067 57.914 C 147.674 88.601,164.752 112.113,190.076 130.896 C 193.361 133.333,195.517 132.923,201.493 128.727 C 203.178 127.544,206.374 124.615,206.352 124.273 C 206.339 124.064,203.417 121.790,200.395 119.636 C 189.804 112.090,179.870 102.387,171.634 91.545 C 166.261 84.473,155.521 65.066,155.331 62.086 C 155.191 59.895,155.534 59.598,160.787 57.369 C 167.884 54.358,168.011 54.409,171.523 61.695 C 181.264 81.903,195.285 98.003,213.624 110.038 C 218.659 113.343,219.377 113.129,224.748 106.722 C 234.935 94.570,242.636 82.192,248.551 68.461 C 249.325 66.665,250.029 65.172,250.116 65.143 C 250.202 65.115,252.114 66.080,254.364 67.290 C 273.650 77.656,285.616 80.008,304.182 77.084 C 308.286 76.438,310.182 75.987,310.177 75.658 C 310.150 74.039,306.760 61.732,306.355 61.779 C 306.110 61.808,305.227 61.950,304.393 62.096 C 298.918 63.053,287.750 63.352,282.909 62.672 C 276.475 61.768,271.729 60.008,263.364 55.423 C 261.064 54.163,258.189 52.635,256.976 52.029 L 254.770 50.928 255.387 48.600 C 257.607 40.224,259.845 26.996,259.581 23.811 C 259.325 20.729,258.917 20.426,249.909 16.622 L 245.545 14.779 245.414 15.798 C 245.341 16.359,245.114 18.527,244.910 20.615 C 242.373 46.495,233.251 70.657,219.142 88.864 C 216.544 92.217,213.705 91.706,208.942 87.025 C 205.069 83.220,205.143 82.291,209.867 75.338 C 221.157 58.724,227.235 41.942,229.382 21.455 C 230.131 14.311,229.827 11.083,228.297 9.915 C 226.565 8.595,216.660 6.879,205.091 5.896 C 201.942 5.629,188.352 5.395,185.818 5.565 M205.413 52.555 C 205.464 52.820,195.330 70.330,194.795 70.903 C 194.576 71.136,194.514 71.136,194.287 70.903 C 193.773 70.374,183.987 52.659,184.078 52.422 C 184.230 52.027,205.337 52.159,205.413 52.555 M16.032 139.349 C 16.064 139.490,19.241 150.822,23.091 164.531 L 30.091 189.455 36.899 189.410 L 43.707 189.364 48.352 175.136 C 50.907 167.311,53.042 160.909,53.097 160.909 C 53.153 160.909,53.427 161.625,53.707 162.500 C 53.987 163.375,56.095 169.798,58.390 176.773 L 62.564 189.455 69.373 189.455 C 73.118 189.455,76.182 189.409,76.182 189.354 C 76.182 189.298,79.332 178.040,83.182 164.335 C 87.032 150.631,90.182 139.344,90.182 139.254 C 90.182 139.160,87.220 139.091,83.216 139.091 L 76.250 139.091 72.262 153.808 C 70.068 161.902,68.223 168.468,68.163 168.399 C 68.078 168.301,61.653 148.005,59.331 140.500 L 58.895 139.091 53.090 139.091 L 47.286 139.091 46.667 141.045 C 46.327 142.120,44.268 148.686,42.091 155.636 C 39.914 162.586,38.078 168.335,38.011 168.410 C 37.943 168.486,36.094 161.920,33.900 153.820 L 29.913 139.091 22.943 139.091 C 17.022 139.091,15.982 139.130,16.032 139.349 M97.091 164.273 L 97.091 189.455 116.455 189.455 L 135.818 189.455 135.818 183.182 L 135.818 176.909 123.000 176.909 L 110.182 176.909 110.182 173.818 L 110.182 170.727 120.727 170.727 L 131.273 170.727 131.273 164.818 L 131.273 158.909 120.727 158.909 L 110.182 158.909 110.182 155.364 L 110.182 151.818 123.000 151.818 L 135.818 151.818 135.818 145.455 L 135.818 139.091 116.455 139.091 L 97.091 139.091 97.091 164.273 M172.727 145.455 L 172.727 151.818 180.545 151.818 L 188.364 151.818 188.364 170.636 L 188.364 189.455 194.909 189.455 L 201.455 189.455 201.455 170.636 L 201.455 151.818 209.273 151.818 L 217.091 151.818 217.091 145.455 L 217.091 139.091 194.909 139.091 L 172.727 139.091 172.727 145.455 M224.909 164.273 L 224.909 189.455 244.273 189.455 L 263.636 189.455 263.636 183.182 L 263.636 176.909 250.818 176.909 L 238.000 176.909 238.000 173.818 L 238.000 170.727 248.545 170.727 L 259.091 170.727 259.091 164.818 L 259.091 158.909 248.545 158.909 L 238.000 158.909 238.000 155.364 L 238.000 151.818 250.818 151.818 L 263.636 151.818 263.636 145.455 L 263.636 139.091 244.273 139.091 L 224.909 139.091 224.909 164.273 M279.223 164.138 C 273.646 177.912,269.085 189.243,269.087 189.318 C 269.089 189.393,272.273 189.455,276.163 189.455 L 283.235 189.455 283.885 187.773 C 284.242 186.848,284.856 185.232,285.249 184.182 L 285.964 182.273 295.765 182.226 L 305.566 182.179 306.923 185.771 L 308.280 189.364 315.433 189.411 C 322.199 189.456,322.579 189.441,322.465 189.138 C 322.398 188.962,317.828 177.631,312.308 163.957 L 302.273 139.095 295.818 139.095 L 289.364 139.094 279.223 164.138 M329.455 164.273 L 329.455 189.455 335.908 189.455 L 342.361 189.455 342.408 177.924 L 342.455 166.394 347.545 177.013 L 352.636 187.631 356.973 187.588 L 361.309 187.545 366.336 177.094 L 371.364 166.643 371.410 178.049 L 371.457 189.455 378.001 189.455 L 384.545 189.455 384.545 164.270 L 384.545 139.086 377.965 139.134 L 371.384 139.182 364.195 154.858 C 360.241 163.479,356.948 170.475,356.876 170.403 C 356.804 170.331,353.623 163.441,349.807 155.091 C 345.991 146.741,342.783 139.725,342.678 139.500 L 342.487 139.091 335.971 139.091 L 329.455 139.091 329.455 164.273 M298.446 163.136 C 299.827 166.861,300.996 170.011,301.043 170.136 C 301.111 170.315,299.996 170.364,295.838 170.364 C 292.927 170.364,290.545 170.302,290.545 170.227 C 290.543 169.945,295.712 156.364,295.821 156.364 C 295.884 156.364,297.065 159.411,298.446 163.136 " stroke="none" fill="#000000" fill-rule="evenodd"></path></g></svg>